{"title":"Elementary S02E17 HDTV x264 AAC [GWC].mp4","uid":9717448,"size":117281193,"categoryP":"video","categoryS":"tv_shows","magnet":"?xt=urn:btih:31f871fbccfbc7c2752d1b4f7aa379f502cb188c&amp;dn=Elementary+S02E17+HDTV+x264+AAC+%5BGWC%5D.mp4&amp;tr=udp%3A%2F%2Ftracker.openbittorrent.com%3A80&amp;tr=udp%3A%2F%2Fopen.demonii.com%3A1337&amp;tr=udp%3A%2F%2Ftracker.coppersurfer.tk%3A6969&amp;tr=udp%3A%2F%2Fexodus.desync.com%3A6969","seeders":5,"leechers":0,"uploader":"canc232","files":1,"time":1394173371,"description":"Elementary S02E17 HDTV x264 AAC [GWC]\n\n\nStoryline :\nA modern take on the cases of Sherlock Holmes, with the detective now living in New York City.\n\n\nSCREENS : &lt;a href=&quot;\nhttp://i.imgur.com/hfnjm1v.jpg&quot; rel=&quot;nofollow&quot; target=&quot;_NEW&quot;&gt;\nhttp://i.imgur.com/hfnjm1v.jpg&lt;/a&gt; &lt;a href=&quot;\nhttp://i.imgur.com/lUKeTiJ.jpg&quot; rel=&quot;nofollow&quot; target=&quot;_NEW&quot;&gt;\nhttp://i.imgur.com/lUKeTiJ.jpg&lt;/a&gt; &lt;a href=&quot;\nhttp://i.imgur.com/WkioEW4.jpg&quot; rel=&quot;nofollow&quot; target=&quot;_NEW&quot;&gt;\nhttp://i.imgur.com/WkioEW4.jpg&lt;/a&gt;\n\n\nMEDIA INFO :\nGeneral \nFormat : MPEG-4 \nFormat profile : Base Media \nFile size : 112 MiB \nDuration : 43mn 24s \nOverall bit rate : 360 Kbps \n\nVideo \nFormat : AVC \nFormat profile : &lt;a class=&quot;__cf_email__&quot; href=&quot;/cdn-cgi/l/email-protection&quot; data-cfemail=&quot;377f5e505f777b041907&quot;&gt;[email&amp;#160;protected]&lt;/a&gt;&lt;script cf-hash='f9e31' type=&quot;text/javascript&quot;&gt;\n/* &lt;![CDATA[ */!function(){try{var t=&quot;currentScript&quot;in document?document.currentScript:function(){for(var t=document.getElementsByTagName(&quot;script&quot;),e=t.length;e--;)if(t[e].getAttribute(&quot;cf-hash&quot;))return t[e]}();if(t&amp;&amp;t.previousSibling){var e,r,n,i,c=t.previousSibling,a=c.getAttribute(&quot;data-cfemail&quot;);if(a){for(e=&quot;&quot;,r=parseInt(a.substr(0,2),16),n=2;a.length-n;n+=2)i=parseInt(a.substr(n,2),16)^r,e+=String.fromCharCode(i);e=document.createTextNode(e),c.parentNode.replaceChild(e,c)}}}catch(u){}}();/* ]]&gt; */&lt;/script&gt; \nFormat settings, CABAC : Yes \nFormat settings, ReFrames : 4 frames \nDuration : 43mn 24s \nBit rate : 297 Kbps \nMaximum bit rate : 1 247 Kbps \nWidth : 720 pixels \nHeight : 400 pixels \nDisplay aspect ratio : 16:9 \nFrame rate : 23.976 fps \nStream size : 92.3 MiB (82%) \nTitle : Elementary S02E17 HDTV x264 AAC [GWC] \nWriting library : x264 core\n\nAudio \nFormat : AAC \nFormat profile : HE-AAC / LC \nDuration : 43mn 24s \nChannel(s) : 2 channels \nSampling rate : 48.0 KHz / 24.0 KHz \nStream size : 18.6 MiB (17%) \nLanguage : English ","torrent":{"xt":"urn:btih:31f871fbccfbc7c2752d1b4f7aa379f502cb188c","amp;dn":"Elementary+S02E17+HDTV+x264+AAC+%5BGWC%5D.mp4","amp;tr":["udp%3A%2F%2Ftracker.openbittorrent.com%3A80","udp%3A%2F%2Fopen.demonii.com%3A1337","udp%3A%2F%2Ftracker.coppersurfer.tk%3A6969","udp%3A%2F%2Fexodus.desync.com%3A6969"],"infoHash":"31f871fbccfbc7c2752d1b4f7aa379f502cb188c","infoHashBuffer":{"type":"Buffer","data":[49,248,113,251,204,251,199,194,117,45,27,79,122,163,121,245,2,203,24,140]},"announce":[],"urlList":[]}}